<?xml version="1.0" encoding="utf-8"?>
<!-- Generator: Adobe Illustrator 16.0.1, SVG Export Plug-In . SVG Version: 6.00 Build 0)  -->
<!DOCTYPE svg PUBLIC "-//W3C//DTD SVG 1.1//EN" "http://www.w3.org/Graphics/SVG/1.1/DTD/svg11.dtd">
<svg version="1.1" id="Layer_1" xmlns="http://www.w3.org/2000/svg" xmlns:xlink="http://www.w3.org/1999/xlink" x="0px" y="0px"
	 width="130px" height="250px" viewBox="0 -5 130 250" enable-background="new 0 -5 130 250" xml:space="preserve">
<g>
	<g>
		<path d="M0,72.083c0-1.736,0-3.472,0-5.208c0.762-1.103,1.711-2.129,2.257-3.318C12.741,40.717,23.176,17.856,33.621-5
			c20.92,0,41.84,0,62.758,0c0.273,0.98,0.411,2.018,0.837,2.937c10.201,22.055,20.425,44.1,30.688,66.128
			c0.477,1.025,1.387,1.877,2.096,2.809c0,1.737,0,3.472,0,5.208c-0.378,0.933-0.925,1.841-1.113,2.806
			c-8.927,45.623-17.864,91.244-26.69,136.884c-2.135,11.044-3.888,22.151-5.817,33.228c-20.918,0-41.838,0-62.758,0
			c-9.169-48.019-18.306-96.042-27.534-144.05C4.231,91.299,2.037,81.704,0,72.083z"/>
		<path fill="none" d="M96.379,245c1.93-11.076,3.683-22.184,5.817-33.227c8.826-45.638,17.764-91.26,26.688-136.883
			c0.189-0.966,0.736-1.873,1.114-2.807c0,57.639,0,115.278,0,172.916C118.794,245,107.587,245,96.379,245z"/>
		<path fill="none" d="M0,72.083c2.037,9.621,4.231,19.215,6.086,28.867c9.229,48.008,18.365,96.031,27.534,144.05
			c-11.179,0-22.357,0-33.621,0C0,187.361,0,129.722,0,72.083z"/>
		<path fill="none" d="M130,66.875c-0.709-0.933-1.619-1.784-2.096-2.808c-10.264-22.03-20.487-44.075-30.688-66.13
			C96.79-2.982,96.652-4.019,96.379-5C107.587-5,118.794-5,130-5C130,18.958,130,42.916,130,66.875z"/>
		<path fill="none" d="M33.621-5C23.176,17.856,12.741,40.717,2.257,63.557C1.711,64.746,0.762,65.773,0,66.875
			C0,43.037,0,19.198,0-5C11.205-5,22.413-5,33.621-5z"/>
	</g>
</g>
</svg>
