<?xml version="1.0" encoding="utf-8"?>
<!-- Generator: Adobe Illustrator 16.0.1, SVG Export Plug-In . SVG Version: 6.00 Build 0)  -->
<!DOCTYPE svg PUBLIC "-//W3C//DTD SVG 1.1//EN" "http://www.w3.org/Graphics/SVG/1.1/DTD/svg11.dtd">
<svg version="1.1" id="Layer_1" xmlns="http://www.w3.org/2000/svg" xmlns:xlink="http://www.w3.org/1999/xlink" x="0px" y="0px"
	 width="500px" height="254.233px" viewBox="-30.187 53.942 500 254.233" enable-background="new -30.187 53.942 500 254.233"
	 xml:space="preserve">
<g>
	<path fill-rule="evenodd" clip-rule="evenodd" d="M469.813,308.176c-163.213,0-333.368,0-500,0
		c14.485-21.619,27.548-41.115,41.519-61.966c7.047,5.346,13.284,10.08,21.213,16.095c22.85-37.098,45.485-73.844,69.058-112.116
		c10.751,10.051,20.002,18.704,31.138,29.115c31.586-42.075,62.444-83.181,94.104-125.361
		c23.116,38.133,45.255,74.646,68.037,112.227c11.101-6.319,20.915-11.911,32.37-18.433c19.564,30.813,38.764,61.157,58.087,91.419
		c4.162,6.524,7.109,16.227,18.187,8.553c0.926-0.646,3.162-0.845,3.82-0.224 M240.286,194.338
		c1.47-11.495,2.327-18.214,3.592-28.107c20.507,27.846,38.729,52.594,59.179,80.361c3.759-15.806,6.465-27.199,9.592-40.356
		c21.638,16.843,41.518,32.317,61.402,47.794c0.833-0.835,1.666-1.669,2.499-2.504c-17.875-28.502-35.746-57.004-53.67-85.589
		c-11.995,6.837-21.915,12.494-33.129,18.884c-21.296-36.575-41.933-72.017-63.753-109.494
		c-31.526,42.842-61.277,83.264-91.816,124.769c-10.845-9.644-20.355-18.104-31.305-27.84
		c-19.833,29.991-39.087,59.104-58.341,88.221c0.819,0.64,1.639,1.28,2.457,1.92c6.553-4.962,13.105-9.924,19.641-14.873
		c2.58,3.938,4.363,6.657,6.771,10.332c14.998-15.746,28.412-29.828,43.395-45.562c3.901,15.825,6.993,28.359,10.736,43.544
		c19.744-23.932,37.057-44.916,57.492-69.688c1.771,17.397,2.942,28.901,4.667,45.825c12.519-28.23,22.664-51.107,34.181-77.067
		C229.787,169.116,234.173,179.646,240.286,194.338z"/>
	<path fill-rule="evenodd" clip-rule="evenodd" fill="#FFFFFF" d="M240.286,194.338c-6.113-14.692-10.499-25.222-16.41-39.431
		c-11.517,25.96-21.662,48.837-34.181,77.067c-1.725-16.924-2.896-28.428-4.667-45.825c-20.436,24.772-37.748,45.757-57.492,69.688
		c-3.743-15.185-6.835-27.719-10.736-43.544c-14.983,15.733-28.397,29.815-43.395,45.562c-2.409-3.675-4.191-6.394-6.771-10.332
		c-6.535,4.949-13.087,9.911-19.641,14.873c-0.818-0.64-1.638-1.28-2.457-1.92c19.254-29.116,38.508-58.229,58.341-88.221
		c10.949,9.736,20.46,18.196,31.305,27.84c30.539-41.505,60.29-81.927,91.816-124.769c21.82,37.477,42.457,72.918,63.753,109.494
		c11.214-6.39,21.134-12.047,33.129-18.884c17.924,28.585,35.795,57.087,53.67,85.589c-0.833,0.835-1.666,1.669-2.499,2.504
		c-19.885-15.477-39.765-30.951-61.402-47.794c-3.127,13.157-5.833,24.551-9.592,40.356c-20.449-27.768-38.672-52.516-59.179-80.361
		C242.613,176.124,241.756,182.843,240.286,194.338z"/>
</g>
</svg>
