<?xml version="1.0" encoding="utf-8"?>
<!-- Generator: Adobe Illustrator 16.0.1, SVG Export Plug-In . SVG Version: 6.00 Build 0)  -->
<!DOCTYPE svg PUBLIC "-//W3C//DTD SVG 1.1//EN" "http://www.w3.org/Graphics/SVG/1.1/DTD/svg11.dtd">
<svg version="1.1" id="Layer_1" xmlns="http://www.w3.org/2000/svg" xmlns:xlink="http://www.w3.org/1999/xlink" x="0px" y="0px"
	 width="130px" height="250px" viewBox="0.001 -1.939 130 250" enable-background="new 0.001 -1.939 130 250" xml:space="preserve">
<g>
	<g>
		<path d="M90.948,248c-1.854,0-3.709,0-5.564,0c-0.225-1.67-0.903-3.453-0.578-4.981c0.652-3.057-0.987-3.645-2.929-4.665
			c-2.173-1.143-4.344-2.588-6.051-4.419c-1.848-1.979-3.222-13.535-1.978-16.076c2.287-4.668,2.684-9.407,2.332-14.663
			c-0.522-7.801,0.691-15.475,3.719-22.716c1.011-2.421,0.738-2.729-1.352-2.636c-5.021,0.229-6.387-1.534-5.268-6.899
			c0.344-1.646,0.92-3.233,1.241-4.884c0.218-1.135,0.514-2.453,0.198-3.476c-1.42-4.617-2.53-9.427-7.267-11.756
			c-2.415-1.188-2.553-2.282-1.638-4.91c0.327-0.937,0.975-1.732,1.32-2.66c0.896-2.403,0.176-4.884-1.566-5.67
			c-2.146-0.971-4.299-0.067-5.181,2.52c-1.4,4.114-2.622,8.301-3.811,12.493c-0.258,0.916-0.005,1.995-0.079,2.99
			c-0.264,3.519-0.234,7.117-0.957,10.521c-0.621,2.932-2.101,5.535-5.109,6.692c-3.766,1.449-4.07,2.258-2.84,6.315
			c0.375,1.242,0.92,2.622,1.781,3.452c2.464,2.376,2.701,5.271,1.688,8.26c-0.783,2.309-0.134,4.126,0.358,6.296
			c1.099,4.849,1.659,9.846,2.42,14.785c0.05,0.322,0.01,0.687-0.068,1.008c-0.942,3.846-0.693,7.62-0.011,11.529
			c1.062,6.096-1.65,11.12-7.001,13.234c-6.87,2.717-14.117,3.579-21.323,4.295c-4.048,0.404-7.469-2.813-7.86-6.978
			c-0.507-5.405,0.115-10.027,5.102-11.487c2.917-0.854,5.622-2.707,8.303-4.343c1.616-0.986,3.351-2.451,3.059-4.71
			c-0.606-4.656-1.149-9.419-2.527-13.84c-2.283-7.325-5.202-14.415-7.856-21.603c-0.521-1.411-1.248-2.771-1.527-4.232
			c-0.34-1.778-0.749-3.771-0.349-5.449c1.043-4.393,2.582-8.641,3.79-12.991c1.598-5.762,5.223-10.791,5.033-17.224
			c-0.037-1.207,0.643-2.63,1.361-3.639c1.398-1.957,1.444-3.262-0.379-5.111c-2.034-2.061-1.632-4.612,0.636-6.409
			c0.975-0.774,2.197-1.201,3.344-1.678c1.775-0.739,2.563-2.227,3.06-4.134c1.518-5.833,3.035-11.67,4.736-17.441
			c0.832-2.825,1.219-5.507,0.369-8.416c-1.596-5.46-3.027-10.977-4.559-16.458c-0.177-0.635-0.433-1.367-0.872-1.763
			c-0.646-0.58-1.485-1.201-2.25-1.212c-0.429-0.007-1.173,1.141-1.251,1.837c-0.222,2.006-0.017,4.073-0.285,6.066
			c-0.241,1.782-0.543,3.775-1.471,5.151c-0.638,0.948-2.41,1.431-3.631,1.346c-1.606-0.109-2.01-1.733-2.085-3.41
			c-0.134-3.014-0.789-6.067-0.509-9.022c0.398-4.222-1.424-6.851-4.33-8.773c-2.09-1.383-4.415-2.437-6.745-3.26
			c-2.486-0.877-5.083-1.429-7.666-1.908c-2.945-0.545-4.735-2.162-5.228-5.481c-0.615-4.169-1.414-8.305-1.994-12.479
			c-0.451-3.237-0.017-6.307,1.351-9.349c1.35-3,2.279-6.244,3.206-9.447c0.295-1.017,0.342-2.445-0.096-3.33
			c-1.45-2.932-1.192-5.398,0.773-7.927c0.763-0.981,0.946-2.476,1.521-3.663c1.855-3.831,4.089-7.199,8.393-7.993
			c2.273-0.417,4.523-0.989,6.791-1.457c2.802-0.578,4.388,0.498,5.105,3.557c0.692,2.944,1.35,5.901,1.91,8.877
			c0.715,3.804,0.413,7.556-1.937,10.581c-3.264,4.204-4.427,9.146-5.171,14.396c-0.317,2.233,0.243,3.816,2.038,4.502
			c4.651,1.779,9.323,3.563,14.098,4.842c1.624,0.436,3.765-0.265,5.307-1.178c0.708-0.419,0.525-2.612,0.781-3.992
			c0.092-0.493,0.174-1.066,0.45-1.428c2.719-3.579,1.716-7.506,1.312-11.583c-0.588-5.956-1.805-12.206,2.258-17.491
			c1.273-1.658,2.667-3.21,4.049-4.764c1.282-1.441,2.792-2.681,3.9-4.26c1.939-2.762,2.834-3.545,5.715-2.366
			c3.871,1.586,7.654,3.522,11.272,5.711c1.83,1.106,2.995,1.782,4.819-0.06c2.246-2.267,4.266-2.372,5.772-1.036
			c1.609,1.426,1.979,4.093,1.149,6.97c-0.501,1.741-0.753,3.567-1.127,5.352c-0.376,1.794-0.377,3.859-1.233,5.314
			c-1.327,2.25-0.724,3.468,0.726,5.226c2.771,3.359,2.148,6.045-1.482,7.864c-0.277,0.14-0.609,0.151-0.882,0.303
			c-2.647,1.475-3.706,3.951-3.044,7.089c0.888,4.211,1.088,4.369,5.319,4.434c0.924,0.015,1.86,0.033,2.765,0.207
			c5.382,1.039,5.674,0.909,8.516-4.188c2.572-4.614,4.152-4.917,8.333-1.718c0.369,0.281,1.056,0.065,1.594,0.081
			c-0.03-0.468,0.109-1.114-0.119-1.378c-1.791-2.073-1.871-4.423-1.343-7.058c0.64-3.191-0.099-6.112-2.326-8.342
			c-2.868-2.875-3.602-6.636-3.801-10.565c-0.358-7.065,3.004-11.402,9.337-12.847c2.193-0.5,4.238-1.768,6.353-2.685
			c1.237,0,2.473,0,3.71,0c1.803,1.943,1.949,4.134,1.763,6.908c-0.287,4.295,0.059,8.712,0.679,12.983
			c0.397,2.745,1.59,5.422,2.794,7.919c0.475,0.984,1.878,1.689,2.98,1.997c2.088,0.582,3.574,1.869,4.77,3.713
			c0,0.679,0,1.354,0,2.032c-0.525,0.829-0.95,1.772-1.597,2.468c-2.291,2.46-2.353,4.771-0.211,7.488
			c1.717,2.175,1.49,4.895,0.016,7.061c-1.15,1.691-2.801,3.062-4.422,4.263c-5.826,4.318-12.015,8.049-14.395,16.212
			c-1.216,4.18-5.539,4.579-8.062,1.166c-0.288-0.391-0.429-0.911-0.716-1.303c-1.479-2.033-2.82-1.938-3.74,0.431
			c-0.782,2.012-1.2,4.192-1.928,6.234c-0.734,2.057-1.579,4.343-3.891,4.562c-3.479,0.328-4.678,2.997-5.504,5.954
			c-1.284,4.608-1.32,9.285,0.129,13.907c1.951,6.224,3.757,12.444,4.793,18.999c0.962,6.096,2.543,12.165,7.046,16.735
			c1.376,1.396,2.146,3.64,2.899,5.627c1.951,5.151,3.345,10.42,3.037,16.154c-0.094,1.715,0.946,3.514,1.509,5.259
			c1.671,5.19,1.863,10.413-0.881,15.142c-2.676,4.612-3.49,9.277-2.022,14.473c0.224,0.791,0.274,1.666,0.287,2.506
			c0.041,3.195-0.876,4.985-3.749,5.354c-2.753,0.35-3.178,2.153-3.525,4.388c-0.466,2.983-0.826,5.986-1.372,8.952
			c-0.384,2.082,0.249,3.084,2.117,3.677c2.504,0.796,4.866,2.161,7.387,2.859c4.227,1.171,6.275,4.475,7.913,8.485
			c1.154,2.823,0.862,5.107-1.071,7.397c-2.268,2.684-5.147,3.533-8.262,4.01C97.523,242.774,93.372,243.51,90.948,248z"/>
		<path fill="none" d="M113.208-1.876c-2.111,0.916-4.159,2.184-6.353,2.684c-6.333,1.446-9.695,5.782-9.337,12.847
			c0.199,3.93,0.933,7.691,3.801,10.565c2.227,2.231,2.966,5.151,2.326,8.342c-0.528,2.636-0.447,4.986,1.344,7.059
			c0.228,0.264,0.087,0.911,0.118,1.377c-0.538-0.015-1.225,0.2-1.594-0.081c-4.182-3.198-5.762-2.896-8.333,1.718
			c-2.841,5.098-3.134,5.228-8.516,4.189c-0.906-0.174-1.841-0.192-2.765-0.207c-4.231-0.065-4.433-0.223-5.319-4.434
			c-0.662-3.138,0.396-5.614,3.044-7.09c0.272-0.15,0.604-0.163,0.882-0.303c3.63-1.819,4.254-4.505,1.482-7.864
			c-1.449-1.756-2.053-2.975-0.726-5.226c0.857-1.457,0.857-3.52,1.232-5.314c0.373-1.784,0.626-3.61,1.128-5.351
			c0.829-2.876,0.46-5.544-1.149-6.97c-1.508-1.335-3.526-1.231-5.772,1.037c-1.824,1.841-2.991,1.165-4.819,0.059
			c-3.618-2.188-7.401-4.126-11.272-5.711c-2.88-1.179-3.775-0.396-5.715,2.366c-1.109,1.581-2.618,2.819-3.9,4.26
			c-1.382,1.554-2.775,3.106-4.049,4.763c-4.062,5.287-2.845,11.536-2.258,17.49c0.403,4.08,1.407,8.005-1.312,11.584
			c-0.276,0.362-0.359,0.935-0.45,1.428c-0.255,1.379-0.072,3.572-0.78,3.992c-1.542,0.914-3.683,1.614-5.307,1.179
			c-4.775-1.279-9.448-3.064-14.099-4.842c-1.796-0.687-2.354-2.27-2.037-4.503c0.744-5.25,1.908-10.193,5.171-14.397
			c2.349-3.025,2.651-6.776,1.937-10.581c-0.56-2.978-1.217-5.934-1.91-8.877c-0.717-3.059-2.304-4.134-5.106-3.557
			c-2.267,0.469-4.517,1.039-6.79,1.458C11.701,2.011,9.468,5.38,7.612,9.209c-0.575,1.187-0.758,2.683-1.521,3.663
			c-1.965,2.527-2.223,4.995-0.773,7.927c0.438,0.886,0.391,2.314,0.096,3.331c-0.927,3.202-1.856,6.446-3.206,9.447
			c-1.368,3.042-1.802,6.114-1.352,9.35c0.58,4.174,1.379,8.312,1.995,12.479c0.491,3.32,2.283,4.936,5.227,5.482
			c2.582,0.479,5.18,1.031,7.666,1.907c2.332,0.825,4.656,1.877,6.745,3.26c2.906,1.923,4.729,4.551,4.33,8.773
			c-0.279,2.956,0.375,6.009,0.509,9.022c0.075,1.676,0.479,3.301,2.085,3.411c1.221,0.084,2.993-0.399,3.631-1.347
			c0.926-1.376,1.229-3.368,1.47-5.151c0.268-1.992,0.062-4.059,0.285-6.065c0.078-0.697,0.822-1.843,1.251-1.838
			c0.765,0.012,1.604,0.631,2.25,1.213c0.439,0.396,0.694,1.128,0.871,1.762c1.532,5.482,2.964,10.999,4.56,16.459
			c0.85,2.909,0.462,5.59-0.369,8.417c-1.701,5.77-3.219,11.608-4.736,17.44c-0.497,1.907-1.285,3.396-3.06,4.133
			c-1.146,0.478-2.37,0.906-3.343,1.678c-2.267,1.797-2.67,4.351-0.636,6.411c1.823,1.849,1.777,3.154,0.379,5.11
			c-0.718,1.008-1.397,2.43-1.361,3.641c0.19,6.431-3.435,11.462-5.032,17.221c-1.208,4.351-2.747,8.6-3.79,12.994
			c-0.398,1.677,0.009,3.667,0.35,5.449c0.28,1.46,1.007,2.819,1.527,4.23c2.653,7.188,5.573,14.277,7.856,21.604
			c1.376,4.419,1.92,9.183,2.526,13.841c0.292,2.256-1.443,3.723-3.059,4.709c-2.681,1.636-5.388,3.489-8.304,4.342
			c-4.986,1.46-5.608,6.081-5.101,11.486c0.392,4.167,3.811,7.383,7.86,6.98c7.207-0.718,14.453-1.582,21.323-4.298
			c5.352-2.114,8.064-7.138,7.001-13.234c-0.682-3.908-0.931-7.683,0.012-11.528c0.079-0.322,0.119-0.686,0.068-1.008
			c-0.762-4.938-1.323-9.935-2.421-14.785c-0.491-2.169-1.14-3.989-0.358-6.294c1.013-2.988,0.776-5.885-1.688-8.262
			c-0.86-0.828-1.405-2.212-1.781-3.453c-1.23-4.057-0.925-4.865,2.84-6.313c3.008-1.157,4.488-3.762,5.109-6.693
			c0.723-3.404,0.693-7.003,0.957-10.521c0.074-0.994-0.179-2.072,0.08-2.99c1.188-4.194,2.412-8.38,3.811-12.493
			c0.881-2.588,3.034-3.489,5.182-2.521c1.741,0.786,2.46,3.269,1.566,5.671c-0.346,0.93-0.995,1.726-1.322,2.661
			c-0.915,2.629-0.776,3.724,1.638,4.909c4.735,2.332,5.847,7.14,7.267,11.756c0.314,1.025,0.02,2.342-0.199,3.477
			c-0.32,1.65-0.896,3.239-1.24,4.885c-1.119,5.364,0.246,7.127,5.268,6.899c2.089-0.095,2.362,0.213,1.352,2.635
			c-3.028,7.241-4.241,14.915-3.719,22.717c0.351,5.255-0.045,9.995-2.332,14.661c-1.245,2.542,0.129,14.097,1.978,16.079
			c1.708,1.831,3.879,3.274,6.051,4.417c1.941,1.021,3.581,1.606,2.929,4.665c-0.325,1.528,0.354,3.313,0.578,4.98
			c-27.67,0-55.34-0.029-83.009,0.063c-1.991,0.008-2.376-0.42-2.375-2.603c0.066-81.597,0.066-163.198,0-244.796
			c-0.002-2.179,0.383-2.604,2.374-2.601C39.319-1.854,76.263-1.876,113.208-1.876z"/>
		<path fill="none" d="M90.948,248c2.424-4.49,6.575-5.226,10.741-5.864c3.115-0.477,5.993-1.328,8.262-4.01
			c1.935-2.29,2.226-4.574,1.07-7.397c-1.638-4.011-3.688-7.313-7.912-8.485c-2.52-0.698-4.882-2.063-7.388-2.859
			c-1.868-0.593-2.499-1.595-2.116-3.677c0.546-2.966,0.906-5.97,1.372-8.952c0.348-2.234,0.772-4.038,3.524-4.388
			c2.874-0.368,3.79-2.158,3.749-5.354c-0.012-0.84-0.061-1.715-0.286-2.506c-1.468-5.195-0.654-9.86,2.023-14.473
			c2.744-4.729,2.55-9.951,0.88-15.142c-0.562-1.745-1.602-3.544-1.509-5.259c0.308-5.734-1.086-11.003-3.038-16.154
			c-0.753-1.987-1.523-4.23-2.899-5.627c-4.503-4.57-6.083-10.64-7.046-16.735c-1.034-6.555-2.842-12.774-4.793-18.999
			c-1.448-4.622-1.411-9.298-0.126-13.907c0.823-2.958,2.023-5.626,5.502-5.954c2.311-0.219,3.156-2.505,3.89-4.562
			c0.728-2.042,1.147-4.22,1.929-6.234c0.921-2.368,2.262-2.463,3.742-0.431c0.286,0.394,0.425,0.912,0.714,1.303
			c2.524,3.413,6.847,3.014,8.063-1.166c2.379-8.163,8.566-11.894,14.393-16.212c1.621-1.202,3.271-2.571,4.422-4.263
			c1.477-2.166,1.702-4.888-0.015-7.062c-2.143-2.716-2.081-5.027,0.21-7.487c0.646-0.695,1.071-1.638,1.598-2.468
			c0,69.918,0,139.837,0,209.752c0,0.849-0.113,1.716,0.021,2.536c0.296,1.775-0.268,2.103-1.878,2.09
			C115.681,247.956,103.315,248,90.948,248z"/>
		<path fill="none" d="M129.903,31.644c-1.195-1.845-2.682-3.133-4.77-3.713c-1.102-0.307-2.506-1.012-2.98-1.997
			c-1.205-2.496-2.396-5.174-2.795-7.918c-0.619-4.272-0.965-8.69-0.678-12.983c0.187-2.773,0.04-4.966-1.763-6.908
			c3.864,0,7.73,0.071,11.592-0.042c1.212-0.036,1.438,0.243,1.429,1.565C129.874,10.313,129.903,20.978,129.903,31.644z"/>
	</g>
</g>
</svg>
